<svg xmlns="http://www.w3.org/2000/svg" aria-hidden="true" style="display:none">
  <symbol id="ico-debug" viewBox="0 0 24 24" fill="none" stroke="currentColor" stroke-width="1.5" stroke-linecap="round" stroke-linejoin="round"><path d="M2 12s3.5-7 10-7 10 7 10 7-3.5 7-10 7-10-7-10-7z"/><circle cx="12" cy="12" r="2.5"/></symbol>
  <symbol id="ico-assert" viewBox="0 0 24 24" fill="none" stroke="currentColor" stroke-width="1.5" stroke-linecap="round" stroke-linejoin="round"><path d="M9 11l2 2 4-4"/><rect x="4" y="3" width="16" height="18" rx="2"/></symbol>
  <symbol id="ico-approval" viewBox="0 0 24 24" fill="none" stroke="currentColor" stroke-width="1.5" stroke-linecap="round" stroke-linejoin="round"><circle cx="12" cy="12" r="9"/><path d="M12 7v5l3 2"/></symbol>
  <symbol id="ico-registry" viewBox="0 0 24 24" fill="none" stroke="currentColor" stroke-width="1.5" stroke-linecap="round" stroke-linejoin="round"><path d="M6 4h11a2 2 0 0 1 2 2v14H8a2 2 0 0 1-2-2V4z"/><path d="M6 8h13M8 12h9M8 16h6"/></symbol>
  <symbol id="ico-visual" viewBox="0 0 24 24" fill="none" stroke="currentColor" stroke-width="1.5" stroke-linecap="round" stroke-linejoin="round"><rect x="3" y="5" width="14" height="11" rx="1.5"/><path d="M17 7h4v4"/><path d="M21 7l-6 6"/><circle cx="8" cy="10" r="1.5" fill="currentColor" stroke="none"/></symbol>
  <symbol id="ico-stats" viewBox="0 0 24 24" fill="none" stroke="currentColor" stroke-width="1.5" stroke-linecap="round" stroke-linejoin="round"><path d="M4 20V4"/><path d="M4 20h16"/><path d="M8 16v-4M12 16V8M16 16v-7"/></symbol>
  <symbol id="ico-copilot" viewBox="0 0 24 24" fill="none" stroke="currentColor" stroke-width="1.5" stroke-linecap="round" stroke-linejoin="round"><path d="M12 3a5 5 0 0 1 5 5v1h1a3 3 0 0 1 0 6h-1l-1 3H8l-1-3H6a3 3 0 0 1 0-6h1V8a5 5 0 0 1 5-5z"/><circle cx="9.5" cy="10" r=".75" fill="currentColor" stroke="none"/><circle cx="14.5" cy="10" r=".75" fill="currentColor" stroke="none"/></symbol>
  <symbol id="ico-space" viewBox="0 0 24 24" fill="none" stroke="currentColor" stroke-width="1.5" stroke-linecap="round" stroke-linejoin="round"><path d="M12 2L3 7l9 5 9-5-9-5z"/><path d="M3 12l9 5 9-5"/><path d="M3 17l9 5 9-5"/></symbol>
  <symbol id="ico-account" viewBox="0 0 24 24" fill="none" stroke="currentColor" stroke-width="1.5" stroke-linecap="round" stroke-linejoin="round"><circle cx="12" cy="8" r="3.5"/><path d="M5 20c0-3.5 3-6 7-6s7 2.5 7 6"/></symbol>
  <symbol id="ico-settings" viewBox="0 0 24 24" fill="none" stroke="currentColor" stroke-width="1.5" stroke-linecap="round" stroke-linejoin="round"><path d="M4 7h16"/><circle cx="8" cy="7" r="2"/><path d="M4 12h16"/><circle cx="15" cy="12" r="2"/><path d="M4 17h16"/><circle cx="10" cy="17" r="2"/></symbol>
  <symbol id="ico-hub" viewBox="0 0 24 24" fill="none" stroke="currentColor" stroke-width="1.5" stroke-linecap="round" stroke-linejoin="round"><rect x="3" y="3" width="7" height="7" rx="1.5"/><rect x="14" y="3" width="7" height="7" rx="1.5"/><rect x="3" y="14" width="7" height="7" rx="1.5"/><rect x="14" y="14" width="7" height="7" rx="1.5"/></symbol>
  <symbol id="ico-gap" viewBox="0 0 24 24" fill="none" stroke="currentColor" stroke-width="1.5" stroke-linecap="round" stroke-linejoin="round"><path d="M8 8h8v8H8z"/><path d="M12 4v4M12 16v4M4 12h4M16 12h4"/></symbol>
  <symbol id="ico-family" viewBox="0 0 24 24" fill="none" stroke="currentColor" stroke-width="1.5" stroke-linecap="round" stroke-linejoin="round"><path d="M12 3l8 4.5v9L12 21l-8-4.5v-9L12 3z"/><circle cx="12" cy="12" r="2"/></symbol>
</svg>
