<svg xmlns="http://www.w3.org/2000/svg" aria-hidden="true" style="display:none">
  <symbol id="ico-debug" viewBox="0 0 24 24" fill="none" stroke="currentColor" stroke-width="2" stroke-linecap="round" stroke-linejoin="round">
    <circle cx="12" cy="12" r="2.5"/>
    <path d="M12 5C5.6 5 2 12 2 12s3.6 7 10 7 10-7 10-7-3.6-7-10-7z"/>
    <path d="M12 9.5V12l1.5 1.5"/>
  </symbol>
  <symbol id="ico-assert" viewBox="0 0 24 24" fill="none" stroke="currentColor" stroke-width="2" stroke-linecap="round" stroke-linejoin="round">
    <path d="M9 11l3 3 8-8"/>
    <path d="M21 12v6a2 2 0 0 1-2 2H5a2 2 0 0 1-2-2V6a2 2 0 0 1 2-2h11"/>
    <path d="M8 3v4M12 3v2M16 3v4"/>
  </symbol>
  <symbol id="ico-registry" viewBox="0 0 24 24" fill="none" stroke="currentColor" stroke-width="2" stroke-linecap="round" stroke-linejoin="round">
    <path d="M4 19.5A2.5 2.5 0 0 1 6.5 17H20"/>
    <path d="M6.5 2H20v20H6.5A2.5 2.5 0 0 1 4 19.5v-15A2.5 2.5 0 0 1 6.5 2z"/>
    <path d="M8 7h8M8 11h8M8 15h5"/>
  </symbol>
  <symbol id="ico-stats" viewBox="0 0 24 24" fill="none" stroke="currentColor" stroke-width="2" stroke-linecap="round" stroke-linejoin="round">
    <path d="M3 3v18h18"/>
    <rect x="7" y="12" width="3" height="6" rx="1"/>
    <rect x="12" y="8" width="3" height="10" rx="1"/>
    <rect x="17" y="5" width="3" height="13" rx="1"/>
  </symbol>
  <symbol id="ico-compare" viewBox="0 0 24 24" fill="none" stroke="currentColor" stroke-width="2" stroke-linecap="round" stroke-linejoin="round">
    <circle cx="12" cy="12" r="9"/>
    <path d="M12 8v5"/>
    <circle cx="12" cy="16.5" r=".75" fill="currentColor" stroke="none"/>
  </symbol>
  <symbol id="ico-family" viewBox="0 0 24 24" fill="none" stroke="currentColor" stroke-width="2" stroke-linecap="round" stroke-linejoin="round">
    <path d="M12 3l8 4.5v9L12 21l-8-4.5v-9L12 3z"/>
    <circle cx="12" cy="12" r="2.5"/>
    <path d="M12 9.5V12l1.2 1.2"/>
  </symbol>
</svg>
